<svg xmlns="http://www.w3.org/2000/svg" xmlns:xlink="http://www.w3.org/1999/xlink" contentStyleType="text/css" data-diagram-type="DESCRIPTION" height="665px" preserveAspectRatio="none" style="width:623px;height:665px;background:#FFFFFF;" version="1.1" viewBox="0 0 623 665" width="623px" zoomAndPan="magnify"><?plantuml 1.2026.6?><defs/><g><g class="title" data-source-line="1"><text fill="#000000" font-family="Helvetica" font-size="14" font-weight="700" lengthAdjust="spacing" textLength="264.6191" x="176.1491" y="22.9951">Atores (personas) &#8212; ATENTO 60+</text></g><!--entity P--><g class="entity" data-qualified-name="P" data-source-line="7" id="ent0001"><ellipse cx="111.319" cy="59.2969" fill="#F1F1F1" rx="16" ry="16" style="stroke:#181818;stroke-width:0.5;"/><path d="M111.319,79.2969 C115.319,79.2969 118.319,79.2969 122.319,75.2969 C130.319,75.2969 138.319,83.2969 138.319,91.2969 L138.319,95.2969 C138.319,99.2969 134.319,103.2969 130.319,103.2969 L92.319,103.2969 C88.319,103.2969 84.319,99.2969 84.319,95.2969 L84.319,91.2969 C84.319,83.2969 92.319,75.2969 100.319,75.2969 C104.319,79.2969 107.319,79.2969 111.319,79.2969" fill="#F1F1F1" style="stroke:#181818;stroke-width:0.5;"/><text fill="#000000" font-family="Helvetica" font-size="14" lengthAdjust="spacing" textLength="90.4531" x="51.32" y="116.792">Pessoa idosa</text><text fill="#000000" font-family="Helvetica" font-size="14" lengthAdjust="spacing" textLength="119.998" x="51.32" y="133.0889">(pessoa cuidada)</text></g><!--entity ACS--><g class="entity" data-qualified-name="ACS" data-source-line="8" id="ent0002"><ellipse cx="111.3179" cy="188.2969" fill="#F1F1F1" rx="16" ry="16" style="stroke:#181818;stroke-width:0.5;"/><path d="M111.3179,208.2969 C115.3179,208.2969 118.3179,208.2969 122.3179,204.2969 C130.3179,204.2969 138.3179,212.2969 138.3179,220.2969 L138.3179,224.2969 C138.3179,228.2969 134.3179,232.2969 130.3179,232.2969 L92.3179,232.2969 C88.3179,232.2969 84.3179,228.2969 84.3179,224.2969 L84.3179,220.2969 C84.3179,212.2969 92.3179,204.2969 100.3179,204.2969 C104.3179,208.2969 107.3179,208.2969 111.3179,208.2969" fill="#F1F1F1" style="stroke:#181818;stroke-width:0.5;"/><text fill="#000000" font-family="Helvetica" font-size="14" lengthAdjust="spacing" textLength="210.6357" x="6" y="245.792">Agente Comunit&#225;rio de Sa&#250;de</text><text fill="#000000" font-family="Helvetica" font-size="14" lengthAdjust="spacing" textLength="132.2891" x="6" y="262.0889">(Agente de Coleta)</text></g><!--entity EC--><g class="entity" data-qualified-name="EC" data-source-line="9" id="ent0003"><ellipse cx="111.3226" cy="317.2969" fill="#F1F1F1" rx="16" ry="16" style="stroke:#181818;stroke-width:0.5;"/><path d="M111.3226,337.2969 C115.3226,337.2969 118.3226,337.2969 122.3226,333.2969 C130.3226,333.2969 138.3226,341.2969 138.3226,349.2969 L138.3226,353.2969 C138.3226,357.2969 134.3226,361.2969 130.3226,361.2969 L92.3226,361.2969 C88.3226,361.2969 84.3226,357.2969 84.3226,353.2969 L84.3226,349.2969 C84.3226,341.2969 92.3226,333.2969 100.3226,333.2969 C104.3226,337.2969 107.3226,337.2969 111.3226,337.2969" fill="#F1F1F1" style="stroke:#181818;stroke-width:0.5;"/><text fill="#000000" font-family="Helvetica" font-size="14" lengthAdjust="spacing" textLength="123.7852" x="49.43" y="374.792">Equipe de Gest&#227;o</text><text fill="#000000" font-family="Helvetica" font-size="14" lengthAdjust="spacing" textLength="120.5176" x="49.43" y="391.0889">do Cuidado (ESF)</text></g><!--entity EM--><g class="entity" data-qualified-name="EM" data-source-line="10" id="ent0004"><ellipse cx="111.319" cy="446.2969" fill="#F1F1F1" rx="16" ry="16" style="stroke:#181818;stroke-width:0.5;"/><path d="M111.319,466.2969 C115.319,466.2969 118.319,466.2969 122.319,462.2969 C130.319,462.2969 138.319,470.2969 138.319,478.2969 L138.319,482.2969 C138.319,486.2969 134.319,490.2969 130.319,490.2969 L92.319,490.2969 C88.319,490.2969 84.319,486.2969 84.319,482.2969 L84.319,478.2969 C84.319,470.2969 92.319,462.2969 100.319,462.2969 C104.319,466.2969 107.319,466.2969 111.319,466.2969" fill="#F1F1F1" style="stroke:#181818;stroke-width:0.5;"/><text fill="#000000" font-family="Helvetica" font-size="14" lengthAdjust="spacing" textLength="123.7852" x="46.88" y="503.792">Equipe de Gest&#227;o</text><text fill="#000000" font-family="Helvetica" font-size="14" lengthAdjust="spacing" textLength="128.8779" x="46.88" y="520.0889">do Monitoramento</text></g><!--entity G--><g class="entity" data-qualified-name="G" data-source-line="11" id="ent0005"><ellipse cx="111.314" cy="575.2969" fill="#F1F1F1" rx="16" ry="16" style="stroke:#181818;stroke-width:0.5;"/><path d="M111.314,595.2969 C115.314,595.2969 118.314,595.2969 122.314,591.2969 C130.314,591.2969 138.314,599.2969 138.314,607.2969 L138.314,611.2969 C138.314,615.2969 134.314,619.2969 130.314,619.2969 L92.314,619.2969 C88.314,619.2969 84.314,615.2969 84.314,611.2969 L84.314,607.2969 C84.314,599.2969 92.314,591.2969 100.314,591.2969 C104.314,595.2969 107.314,595.2969 111.314,595.2969" fill="#F1F1F1" style="stroke:#181818;stroke-width:0.5;"/><text fill="#000000" font-family="Helvetica" font-size="14" lengthAdjust="spacing" textLength="68.4824" x="48.69" y="632.792">Gestor da</text><text fill="#000000" font-family="Helvetica" font-size="14" lengthAdjust="spacing" textLength="125.248" x="48.69" y="649.0889">unidade de sa&#250;de</text></g><!--entity SYS--><g class="entity" data-qualified-name="SYS" data-source-line="13" id="ent0006"><rect fill="#F1F1F1" height="52.5938" rx="2.5" ry="2.5" style="stroke:#181818;stroke-width:0.5;" width="333.2773" x="276.64" y="321.2969"/><text fill="#000000" font-family="Helvetica" font-size="14" lengthAdjust="spacing" textLength="245.1025" x="286.64" y="344.292">Plataforma mareIA &#8212; ATENTO 60+</text><text fill="#000000" font-family="Helvetica" font-size="14" lengthAdjust="spacing" textLength="313.2773" x="286.64" y="360.5889">M1 Coleta/IA &#183; M2 Telessa&#250;de &#183; M3 Educa&#231;&#227;o</text></g><!--link P to SYS--><g class="link" data-entity-1="ent0001" data-entity-2="ent0006" data-link-type="association" data-source-line="15" id="lnk7"><path d="M171.55,124.3469 C186.55,133.7369 202.44,144.1869 216.64,154.5869 C291.27,209.2869 372.18,282.1669 413.86,320.8369" fill="none" id="P-SYS" style="stroke:#181818;stroke-width:1;"/></g><!--link ACS to SYS--><g class="link" data-entity-1="ent0002" data-entity-2="ent0006" data-link-type="association" data-source-line="16" id="lnk8"><path d="M216.72,259.4069 C268.07,279.4869 328.52,303.1169 373.91,320.8569" fill="none" id="ACS-SYS" style="stroke:#181818;stroke-width:1;"/></g><!--link EC to SYS--><g class="link" data-entity-1="ent0003" data-entity-2="ent0006" data-link-type="association" data-source-line="17" id="lnk9"><path d="M173.61,347.5869 C202.96,347.5869 239.68,347.5869 276.45,347.5869" fill="none" id="EC-SYS" style="stroke:#181818;stroke-width:1;"/></g><!--link EM to SYS--><g class="link" data-entity-1="ent0004" data-entity-2="ent0006" data-link-type="association" data-source-line="18" id="lnk10"><path d="M175.94,451.7169 C232.77,429.4969 315.81,397.0269 374.02,374.2769" fill="none" id="EM-SYS" style="stroke:#181818;stroke-width:1;"/></g><!--link G to SYS--><g class="link" data-entity-1="ent0005" data-entity-2="ent0006" data-link-type="association" data-source-line="19" id="lnk11"><path d="M174.29,569.1169 C188.47,560.1769 203.3,550.3669 216.64,540.5869 C291.27,485.8969 372.18,413.0169 413.86,374.3369" fill="none" id="G-SYS" style="stroke:#181818;stroke-width:1;"/></g><?plantuml-src VL5BJiCm4Dtx5AEkMg6AdyG-YjB28YLIka7gPXHFKel4KsA7YXs7u0A81KT0OablmacOkWcgMB3oi-UzUM_6tlYQ8FBSaeFnXbh75jq4lfzV85ecY-KjN9sTg9fA3vwXDTNQWpOj5TwmLUxUs0sss81Re-QjiHMKM3iwgcWgiQlzZArVO4DmJVKZULFW4GSBIP3x9yc2MtBSa5BX3KOPESS8HhF3bPM8uLfqHgF6oGZGGJPmeugi9uYvwQpnkzVMiDX3ZhjFJIBkwtfFgSdtyYZEXmR9GsSsWJ0dvtTllBAQ8Gvc3ECadnqaIVo_8cNnPvbC_FYWI0V5dYUdbcaafJGEQXSo1kfSgVr-qLQoZb5MeyUIsmQXmPPkeZz_ixBfUJ_EgHI_FY2zW2NLigVGChnSGgAx0dVl4Z1uv7UvKXbCfm791WQOnBye7T2y1py0?></g></svg>