<svg xmlns="http://www.w3.org/2000/svg" xmlns:xlink="http://www.w3.org/1999/xlink" contentStyleType="text/css" data-diagram-type="DESCRIPTION" height="884px" preserveAspectRatio="none" style="width:483px;height:884px;background:#FFFFFF;" version="1.1" viewBox="0 0 483 884" width="483px" zoomAndPan="magnify"><?plantuml 1.2026.6?><defs/><g><g class="title" data-source-line="1"><text fill="#000000" font-family="Helvetica" font-size="14" font-weight="700" lengthAdjust="spacing" textLength="226.1396" x="125.0752" y="22.9951">Casos de uso &#8212; ATENTO 60+</text></g><!--cluster Plataforma mareIA ? ATENTO 60+--><g class="cluster" data-qualified-name="Plataforma mareIA . ATENTO 60." data-source-line="13" id="ent0006"><rect fill="none" height="822" rx="2.5" ry="2.5" style="stroke:#181818;stroke-width:1;" width="287" x="182.29" y="44.2969"/><text fill="#000000" font-family="Helvetica" font-size="14" font-weight="700" lengthAdjust="spacing" textLength="271.5986" x="189.9907" y="59.292">Plataforma mareIA &#8212; ATENTO 60+</text></g><!--entity UC1--><g class="entity" data-qualified-name="Plataforma mareIA . ATENTO 60..UC1" data-source-line="14" id="ent0007"><ellipse cx="325.289" cy="337.2998" fill="#F1F1F1" rx="90.359" ry="24.2829" style="stroke:#181818;stroke-width:0.5;"/><text fill="#000000" font-family="Helvetica" font-size="14" lengthAdjust="spacing" textLength="133.7861" x="258.396" y="336.4082">Cadastrar paciente</text><text fill="#000000" font-family="Helvetica" font-size="14" lengthAdjust="spacing" textLength="80.2471" x="285.1655" y="352.7051">(com TCLE)</text></g><!--entity UC2--><g class="entity" data-qualified-name="Plataforma mareIA . ATENTO 60..UC2" data-source-line="15" id="ent0008"><ellipse cx="325.2872" cy="261.2963" fill="#F1F1F1" rx="70.2972" ry="16.4594" style="stroke:#181818;stroke-width:0.5;"/><text fill="#000000" font-family="Helvetica" font-size="14" lengthAdjust="spacing" textLength="107.126" x="271.7243" y="265.9448">Aplicar IVCF-20</text></g><!--entity UC3--><g class="entity" data-qualified-name="Plataforma mareIA . ATENTO 60..UC3" data-source-line="16" id="ent0009"><ellipse cx="325.2897" cy="186.2939" fill="#F1F1F1" rx="89.0797" ry="23.507" style="stroke:#181818;stroke-width:0.5;"/><text fill="#000000" font-family="Helvetica" font-size="14" lengthAdjust="spacing" textLength="136.8145" x="256.8825" y="186.6429">Coletar sinais vitais</text><text fill="#000000" font-family="Helvetica" font-size="14" lengthAdjust="spacing" textLength="32.1699" x="309.2047" y="202.9398">(IoT)</text></g><!--entity UC4--><g class="entity" data-qualified-name="Plataforma mareIA . ATENTO 60..UC4" data-source-line="17" id="ent0010"><ellipse cx="325.2854" cy="581.294" fill="#F1F1F1" rx="71.1354" ry="16.6271" style="stroke:#181818;stroke-width:0.5;"/><text fill="#000000" font-family="Helvetica" font-size="14" lengthAdjust="spacing" textLength="109.2246" x="270.6731" y="585.9424">Classificar risco</text></g><!--entity UC5--><g class="entity" data-qualified-name="Plataforma mareIA . ATENTO 60..UC5" data-source-line="18" id="ent0011"><ellipse cx="325.2913" cy="656.3006" fill="#F1F1F1" rx="82.1813" ry="23.7438" style="stroke:#181818;stroke-width:0.5;"/><text fill="#000000" font-family="Helvetica" font-size="14" lengthAdjust="spacing" textLength="124.4141" x="263.0843" y="656.2634">Gerar / responder</text><text fill="#000000" font-family="Helvetica" font-size="14" lengthAdjust="spacing" textLength="48.2002" x="301.1912" y="672.5602">alertas</text></g><!--entity UC6--><g class="entity" data-qualified-name="Plataforma mareIA . ATENTO 60..UC6" data-source-line="19" id="ent0012"><ellipse cx="325.285" cy="421.2985" fill="#F1F1F1" rx="70.495" ry="24.4816" style="stroke:#181818;stroke-width:0.5;"/><text fill="#000000" font-family="Helvetica" font-size="14" lengthAdjust="spacing" textLength="67.5527" x="291.5086" y="415.497">Monitorar</text><text fill="#000000" font-family="Helvetica" font-size="14" lengthAdjust="spacing" textLength="102.4092" x="274.0804" y="431.7939">(Sentinel loop)</text></g><!--entity UC7--><g class="entity" data-qualified-name="Plataforma mareIA . ATENTO 60..UC7" data-source-line="20" id="ent0013"><ellipse cx="325.2949" cy="505.2981" fill="#F1F1F1" rx="74.5849" ry="24.7012" style="stroke:#181818;stroke-width:0.5;"/><text fill="#000000" font-family="Helvetica" font-size="14" lengthAdjust="spacing" textLength="107.5156" x="271.5371" y="503.7648">Construir plano</text><text fill="#000000" font-family="Helvetica" font-size="14" lengthAdjust="spacing" textLength="77.3281" x="286.6308" y="520.0616">de cuidado</text></g><!--entity UC8--><g class="entity" data-qualified-name="Plataforma mareIA . ATENTO 60..UC8" data-source-line="21" id="ent0014"><ellipse cx="325.2893" cy="739.2938" fill="#F1F1F1" rx="66.6493" ry="24.577" style="stroke:#181818;stroke-width:0.5;"/><text fill="#000000" font-family="Helvetica" font-size="14" lengthAdjust="spacing" textLength="96.1475" x="277.2156" y="737.9494">Supervisionar</text><text fill="#000000" font-family="Helvetica" font-size="14" lengthAdjust="spacing" textLength="65.9805" x="292.2991" y="754.2463">protocolo</text></g><!--entity UC9--><g class="entity" data-qualified-name="Plataforma mareIA . ATENTO 60..UC9" data-source-line="22" id="ent0015"><ellipse cx="325.2866" cy="824.2985" fill="#F1F1F1" rx="53.6766" ry="25.9116" style="stroke:#181818;stroke-width:0.5;"/><text fill="#000000" font-family="Helvetica" font-size="14" lengthAdjust="spacing" textLength="70.3691" x="290.102" y="820.6061">Relat&#243;rios</text><text fill="#000000" font-family="Helvetica" font-size="14" lengthAdjust="spacing" textLength="72.0918" x="289.2407" y="836.903">gerenciais</text></g><!--entity UC10--><g class="entity" data-qualified-name="Plataforma mareIA . ATENTO 60..UC10" data-source-line="23" id="ent0016"><ellipse cx="325.294" cy="103.297" fill="#F1F1F1" rx="95.374" ry="24.3702" style="stroke:#181818;stroke-width:0.5;"/><text fill="#000000" font-family="Helvetica" font-size="14" lengthAdjust="spacing" textLength="88.3203" x="281.1338" y="97.3239">Autorrelato /</text><text fill="#000000" font-family="Helvetica" font-size="14" lengthAdjust="spacing" textLength="140.8887" x="254.8496" y="113.6208">educa&#231;&#227;o em sa&#250;de</text></g><!--entity P--><g class="entity" data-qualified-name="P" data-source-line="7" id="ent0001"><ellipse cx="72.1466" cy="123.1469" fill="#F1F1F1" rx="16" ry="16" style="stroke:#181818;stroke-width:0.5;"/><path d="M72.1466,143.1469 C76.1466,143.1469 79.1466,143.1469 83.1466,139.1469 C91.1466,139.1469 99.1466,147.1469 99.1466,155.1469 L99.1466,159.1469 C99.1466,163.1469 95.1466,167.1469 91.1466,167.1469 L53.1466,167.1469 C49.1466,167.1469 45.1466,163.1469 45.1466,159.1469 L45.1466,155.1469 C45.1466,147.1469 53.1466,139.1469 61.1466,139.1469 C65.1466,143.1469 68.1466,143.1469 72.1466,143.1469" fill="#F1F1F1" style="stroke:#181818;stroke-width:0.5;"/><text fill="#000000" font-family="Helvetica" font-size="14" lengthAdjust="spacing" textLength="90.4531" x="26.92" y="180.642">Pessoa idosa</text></g><!--entity ACS--><g class="entity" data-qualified-name="ACS" data-source-line="8" id="ent0002"><ellipse cx="72.1445" cy="270.9969" fill="#F1F1F1" rx="16" ry="16" style="stroke:#181818;stroke-width:0.5;"/><path d="M72.1445,290.9969 C76.1445,290.9969 79.1445,290.9969 83.1445,286.9969 C91.1445,286.9969 99.1445,294.9969 99.1445,302.9969 L99.1445,306.9969 C99.1445,310.9969 95.1445,314.9969 91.1445,314.9969 L53.1445,314.9969 C49.1445,314.9969 45.1445,310.9969 45.1445,306.9969 L45.1445,302.9969 C45.1445,294.9969 53.1445,286.9969 61.1445,286.9969 C65.1445,290.9969 68.1445,290.9969 72.1445,290.9969" fill="#F1F1F1" style="stroke:#181818;stroke-width:0.5;"/><text fill="#000000" font-family="Helvetica" font-size="14" lengthAdjust="spacing" textLength="28.2393" x="6" y="328.492">ACS</text><text fill="#000000" font-family="Helvetica" font-size="14" lengthAdjust="spacing" textLength="132.2891" x="6" y="344.7889">(Agente de Coleta)</text></g><!--entity EC--><g class="entity" data-qualified-name="EC" data-source-line="9" id="ent0003"><ellipse cx="72.1426" cy="485.9969" fill="#F1F1F1" rx="16" ry="16" style="stroke:#181818;stroke-width:0.5;"/><path d="M72.1426,505.9969 C76.1426,505.9969 79.1426,505.9969 83.1426,501.9969 C91.1426,501.9969 99.1426,509.9969 99.1426,517.9969 L99.1426,521.9969 C99.1426,525.9969 95.1426,529.9969 91.1426,529.9969 L53.1426,529.9969 C49.1426,529.9969 45.1426,525.9969 45.1426,521.9969 L45.1426,517.9969 C45.1426,509.9969 53.1426,501.9969 61.1426,501.9969 C65.1426,505.9969 68.1426,505.9969 72.1426,505.9969" fill="#F1F1F1" style="stroke:#181818;stroke-width:0.5;"/><text fill="#000000" font-family="Helvetica" font-size="14" lengthAdjust="spacing" textLength="123.7852" x="10.25" y="543.492">Equipe de Gest&#227;o</text><text fill="#000000" font-family="Helvetica" font-size="14" lengthAdjust="spacing" textLength="79.3584" x="10.25" y="559.7889">do Cuidado</text></g><!--entity EM--><g class="entity" data-qualified-name="EM" data-source-line="10" id="ent0004"><ellipse cx="72.149" cy="644.9969" fill="#F1F1F1" rx="16" ry="16" style="stroke:#181818;stroke-width:0.5;"/><path d="M72.149,664.9969 C76.149,664.9969 79.149,664.9969 83.149,660.9969 C91.149,660.9969 99.149,668.9969 99.149,676.9969 L99.149,680.9969 C99.149,684.9969 95.149,688.9969 91.149,688.9969 L53.149,688.9969 C49.149,688.9969 45.149,684.9969 45.149,680.9969 L45.149,676.9969 C45.149,668.9969 53.149,660.9969 61.149,660.9969 C65.149,664.9969 68.149,664.9969 72.149,664.9969" fill="#F1F1F1" style="stroke:#181818;stroke-width:0.5;"/><text fill="#000000" font-family="Helvetica" font-size="14" lengthAdjust="spacing" textLength="123.7852" x="7.71" y="702.492">Equipe de Gest&#227;o</text><text fill="#000000" font-family="Helvetica" font-size="14" lengthAdjust="spacing" textLength="128.8779" x="7.71" y="718.7889">do Monitoramento</text></g><!--entity G--><g class="entity" data-qualified-name="G" data-source-line="11" id="ent0005"><ellipse cx="72.1412" cy="793.9969" fill="#F1F1F1" rx="16" ry="16" style="stroke:#181818;stroke-width:0.5;"/><path d="M72.1412,813.9969 C76.1412,813.9969 79.1412,813.9969 83.1412,809.9969 C91.1412,809.9969 99.1412,817.9969 99.1412,825.9969 L99.1412,829.9969 C99.1412,833.9969 95.1412,837.9969 91.1412,837.9969 L53.1412,837.9969 C49.1412,837.9969 45.1412,833.9969 45.1412,829.9969 L45.1412,825.9969 C45.1412,817.9969 53.1412,809.9969 61.1412,809.9969 C65.1412,813.9969 68.1412,813.9969 72.1412,813.9969" fill="#F1F1F1" style="stroke:#181818;stroke-width:0.5;"/><text fill="#000000" font-family="Helvetica" font-size="14" lengthAdjust="spacing" textLength="68.4824" x="37.9" y="851.492">Gestor da</text><text fill="#000000" font-family="Helvetica" font-size="14" lengthAdjust="spacing" textLength="56.6016" x="37.9" y="867.7889">unidade</text></g><!--link ACS to UC1--><g class="link" data-entity-1="ent0002" data-entity-2="ent0007" data-link-type="dependency" data-source-line="26" id="lnk17"><path d="M138.47,310.6569 C171.03,315.3269 205.7207,320.2965 240.0007,325.2165" fill="none" id="ACS-to-UC1" style="stroke:#181818;stroke-width:1;"/><polygon fill="#181818" points="244.95,325.9269,236.6096,320.6888,240.0007,325.2165,235.473,328.6077,244.95,325.9269" style="stroke:#181818;stroke-width:1;stroke-linejoin:miter;stroke-miterlimit:10;"/></g><!--link ACS to UC2--><g class="link" data-entity-1="ent0002" data-entity-2="ent0008" data-link-type="dependency" data-source-line="27" id="lnk18"><path d="M138.47,290.8869 C178.01,284.5969 223.0423,277.4236 261.2023,271.3436" fill="none" id="ACS-to-UC2" style="stroke:#181818;stroke-width:1;"/><polygon fill="#181818" points="266.14,270.5569,256.6227,268.0228,261.2023,271.3436,257.8815,275.9232,266.14,270.5569" style="stroke:#181818;stroke-width:1;stroke-linejoin:miter;stroke-miterlimit:10;"/></g><!--link ACS to UC3--><g class="link" data-entity-1="ent0002" data-entity-2="ent0009" data-link-type="dependency" data-source-line="28" id="lnk19"><path d="M130.21,254.0269 C144.03,244.1669 159.2,234.5769 174.29,227.2969 C198.73,215.5169 222.2515,207.8885 247.6915,201.4785" fill="none" id="ACS-to-UC3" style="stroke:#181818;stroke-width:1;"/><polygon fill="#181818" points="252.54,200.2569,242.8355,198.5771,247.6915,201.4785,244.7901,206.3346,252.54,200.2569" style="stroke:#181818;stroke-width:1;stroke-linejoin:miter;stroke-miterlimit:10;"/></g><!--link ACS to UC6--><g class="link" data-entity-1="ent0002" data-entity-2="ent0012" data-link-type="dependency" data-source-line="29" id="lnk20"><path d="M126.48,348.5069 C141.22,359.8069 157.74,370.9969 174.29,379.2969 C201.97,393.1769 230.0266,401.8863 257.9766,408.5563" fill="none" id="ACS-to-UC6" style="stroke:#181818;stroke-width:1;"/><polygon fill="#181818" points="262.84,409.7169,255.0143,403.737,257.9766,408.5563,253.1573,411.5185,262.84,409.7169" style="stroke:#181818;stroke-width:1;stroke-linejoin:miter;stroke-miterlimit:10;"/></g><!--link P to UC10--><g class="link" data-entity-1="ent0001" data-entity-2="ent0016" data-link-type="dependency" data-source-line="30" id="lnk21"><path d="M117.75,137.8369 C152.85,131.9669 197.7285,124.4617 239.6385,117.4517" fill="none" id="P-to-UC10" style="stroke:#181818;stroke-width:1;"/><polygon fill="#181818" points="244.57,116.6269,235.0334,114.1664,239.6385,117.4517,236.3532,122.0568,244.57,116.6269" style="stroke:#181818;stroke-width:1;stroke-linejoin:miter;stroke-miterlimit:10;"/></g><!--link P to UC3--><g class="link" data-entity-1="ent0001" data-entity-2="ent0009" data-link-type="dependency" data-source-line="31" id="lnk22"><path d="M117.75,152.5769 C153.98,158.4969 200.9453,166.1614 243.6453,173.1314" fill="none" id="P-to-UC3" style="stroke:#181818;stroke-width:1;"/><polygon fill="#181818" points="248.58,173.9369,240.342,168.5392,243.6453,173.1314,239.0532,176.4347,248.58,173.9369" style="stroke:#181818;stroke-width:1;stroke-linejoin:miter;stroke-miterlimit:10;"/></g><!--link EC to UC4--><g class="link" data-entity-1="ent0003" data-entity-2="ent0010" data-link-type="dependency" data-source-line="32" id="lnk23"><path d="M134.44,535.8869 C147.54,539.8469 161.33,543.8469 174.29,547.2969 C206.16,555.7769 237.3033,562.9283 266.0633,569.1583" fill="none" id="EC-to-UC4" style="stroke:#181818;stroke-width:1;"/><polygon fill="#181818" points="270.95,570.2169,263.0008,564.4022,266.0633,569.1583,261.3072,572.2208,270.95,570.2169" style="stroke:#181818;stroke-width:1;stroke-linejoin:miter;stroke-miterlimit:10;"/></g><!--link EC to UC5--><g class="link" data-entity-1="ent0003" data-entity-2="ent0011" data-link-type="dependency" data-source-line="33" id="lnk24"><path d="M111.91,563.5569 C129.27,582.0469 151.06,601.9669 174.29,615.2969 C198.29,629.0669 222.2578,637.211 248.1978,643.431" fill="none" id="EC-to-UC5" style="stroke:#181818;stroke-width:1;"/><polygon fill="#181818" points="253.06,644.5969,245.2408,638.6086,248.1978,643.431,243.3754,646.388,253.06,644.5969" style="stroke:#181818;stroke-width:1;stroke-linejoin:miter;stroke-miterlimit:10;"/></g><!--link EC to UC6--><g class="link" data-entity-1="ent0003" data-entity-2="ent0012" data-link-type="dependency" data-source-line="34" id="lnk25"><path d="M134.5,481.5369 C147.41,474.9669 161.11,468.5269 174.29,463.2969 C203.7,451.6269 232.7152,443.0831 260.8152,435.9131" fill="none" id="EC-to-UC6" style="stroke:#181818;stroke-width:1;"/><polygon fill="#181818" points="265.66,434.6769,255.9505,433.0262,260.8152,435.9131,257.9284,440.7778,265.66,434.6769" style="stroke:#181818;stroke-width:1;stroke-linejoin:miter;stroke-miterlimit:10;"/></g><!--link EC to UC7--><g class="link" data-entity-1="ent0003" data-entity-2="ent0013" data-link-type="dependency" data-source-line="35" id="lnk26"><path d="M134.26,513.6169 C169.54,512.0769 209.1448,510.3349 246.2648,508.7149" fill="none" id="EC-to-UC7" style="stroke:#181818;stroke-width:1;"/><polygon fill="#181818" points="251.26,508.4969,242.0942,504.8931,246.2648,508.7149,242.443,512.8855,251.26,508.4969" style="stroke:#181818;stroke-width:1;stroke-linejoin:miter;stroke-miterlimit:10;"/></g><!--link EM to UC8--><g class="link" data-entity-1="ent0004" data-entity-2="ent0014" data-link-type="dependency" data-source-line="36" id="lnk27"><path d="M136.84,691.5269 C177.82,701.9769 225.6847,714.1729 264.7547,724.1229" fill="none" id="EM-to-UC8" style="stroke:#181818;stroke-width:1;"/><polygon fill="#181818" points="269.6,725.3569,261.8656,719.2595,264.7547,724.1229,259.8912,727.012,269.6,725.3569" style="stroke:#181818;stroke-width:1;stroke-linejoin:miter;stroke-miterlimit:10;"/></g><!--link EM to UC5--><g class="link" data-entity-1="ent0004" data-entity-2="ent0011" data-link-type="dependency" data-source-line="37" id="lnk28"><path d="M136.84,670.4769 C169.83,667.9869 205.4243,665.2948 240.3843,662.6448" fill="none" id="EM-to-UC5" style="stroke:#181818;stroke-width:1;"/><polygon fill="#181818" points="245.37,662.2669,236.0934,658.9586,240.3843,662.6448,236.6981,666.9357,245.37,662.2669" style="stroke:#181818;stroke-width:1;stroke-linejoin:miter;stroke-miterlimit:10;"/></g><!--link G to UC9--><g class="link" data-entity-1="ent0005" data-entity-2="ent0015" data-link-type="dependency" data-source-line="38" id="lnk29"><path d="M106.75,824.2969 C148.86,824.2969 216.49,824.2969 266.16,824.2969" fill="none" id="G-to-UC9" style="stroke:#181818;stroke-width:1;"/><polygon fill="#181818" points="271.16,824.2969,262.16,820.2969,266.16,824.2969,262.16,828.2969,271.16,824.2969" style="stroke:#181818;stroke-width:1;stroke-linejoin:miter;stroke-miterlimit:10;"/></g><?plantuml-src VPB1RjD048Rl-nIZd8fGr90qQNj1YYmtH28b8YadNqRhIRfYlMDsrwaGGk8XU0CEF00thdaJdeIniOd3WTF-ydmx_kUVZIPQWWG31yW9gi3mwyjNc6_J--qRc8sUAqkx2971c_rZXDnuqj6mK-6zSILwB20yOivFnkrXXpPGhvBJ3YiRxzZ5Uom8Nf4zK3GQUmpgo7uJFueDVAB01IdLV8F1ca9W19Dpm05WW7LNcIURp5tCz-GYrRuJjXJnMGD9hSFI3vKf6s118Hw_SUPoXgGokJXku3JvFxjYPwGivbriRwow6pKdPuwPgrpTaXfWeLIT4RgzZ3HOMuouOryW5EXfEVydtm5yKY2vayOWU88vXkZHGudQrEF9d9eBs2Qlqp_pFIGl-ZVcfPL0FIpV9NV3yQX5ncTDctGy1EFG13YOA8VqNVAsQpavuos6O7PDMs-2vXQwwaCBgbrUWgTGiil9Pmuj-OYXfQTzkijHg8kDZ6KSMR3CPMTWTcxOIGYLaHGikdeJ1BgtjOVakezlgfBymGHvblKFIi-HDTkElUcpRqaMSlpX3Ki2U_Baj94qMlJsBDbA7FkQPxZC7EMLnkDtUHb0ykZn-BDTk2naf3uh9GyFXiENpO9EUjpJavwUgNL7Z_xAYKgJLbwTvFGaPoTvhT9LAszESgeMhRhz3G00?></g></svg>