<svg xmlns="http://www.w3.org/2000/svg" xmlns:xlink="http://www.w3.org/1999/xlink" contentStyleType="text/css" data-diagram-type="DESCRIPTION" height="777px" preserveAspectRatio="none" style="width:493px;height:777px;background:#FFFFFF;" version="1.1" viewBox="0 0 493 777" width="493px" zoomAndPan="magnify"><?plantuml 1.2026.6?><defs/><g><g class="title" data-source-line="1"><text fill="#000000" font-family="Helvetica" font-size="14" font-weight="700" lengthAdjust="spacing" textLength="414.7295" x="35.8153" y="22.9951">Casos de Uso &#8212; FamilIAr_Ativa (Cuidados Paliativos)</text></g><!--cluster Plataforma mareIA ? FamilIAr_Ativa--><g class="cluster" data-qualified-name="Plataforma mareIA . FamilIAr_Ativa" data-source-line="14" id="ent0007"><rect fill="none" height="692" rx="2.5" ry="2.5" style="stroke:#181818;stroke-width:1;" width="302" x="177.36" y="59.4469"/><text fill="#000000" font-family="Helvetica" font-size="14" font-weight="700" lengthAdjust="spacing" textLength="286.4395" x="185.1403" y="74.442">Plataforma mareIA &#8212; FamilIAr_Ativa</text></g><!--entity UC1--><g class="entity" data-qualified-name="Plataforma mareIA . FamilIAr_Ativa.UC1" data-source-line="15" id="ent0008"><ellipse cx="327.8554" cy="119.4516" fill="#F1F1F1" rx="91.1054" ry="24.7447" style="stroke:#181818;stroke-width:0.5;"/><text fill="#000000" font-family="Helvetica" font-size="14" lengthAdjust="spacing" textLength="132.0635" x="261.8236" y="117.8525">Registrar sintomas</text><text fill="#000000" font-family="Helvetica" font-size="14" lengthAdjust="spacing" textLength="96.4551" x="279.6278" y="134.1493">(Escala ESAS)</text></g><!--entity UC2--><g class="entity" data-qualified-name="Plataforma mareIA . FamilIAr_Ativa.UC2" data-source-line="16" id="ent0009"><ellipse cx="327.8576" cy="203.4483" fill="#F1F1F1" rx="99.5576" ry="24.4014" style="stroke:#181818;stroke-width:0.5;"/><text fill="#000000" font-family="Helvetica" font-size="14" lengthAdjust="spacing" textLength="147.0547" x="254.3302" y="202.3732">Registrar sobrecarga</text><text fill="#000000" font-family="Helvetica" font-size="14" lengthAdjust="spacing" textLength="93.5635" x="281.0759" y="218.6701">(Escala Zarit)</text></g><!--entity UC3--><g class="entity" data-qualified-name="Plataforma mareIA . FamilIAr_Ativa.UC3" data-source-line="17" id="ent0010"><ellipse cx="327.8626" cy="541.4437" fill="#F1F1F1" rx="82.2026" ry="24.5068" style="stroke:#181818;stroke-width:0.5;"/><text fill="#000000" font-family="Helvetica" font-size="14" lengthAdjust="spacing" textLength="120.0322" x="267.8465" y="540.2065">Predi&#231;&#227;o de risco</text><text fill="#000000" font-family="Helvetica" font-size="14" lengthAdjust="spacing" textLength="80.0352" x="287.845" y="556.5034">por IA (XAI)</text></g><!--entity UC4--><g class="entity" data-qualified-name="Plataforma mareIA . FamilIAr_Ativa.UC4" data-source-line="18" id="ent0011"><ellipse cx="327.8557" cy="372.4429" fill="#F1F1F1" rx="93.5257" ry="25.266" style="stroke:#181818;stroke-width:0.5;"/><text fill="#000000" font-family="Helvetica" font-size="14" lengthAdjust="spacing" textLength="132.5146" x="261.5984" y="370.0678">Triagem de alertas</text><text fill="#000000" font-family="Helvetica" font-size="14" lengthAdjust="spacing" textLength="112.7451" x="271.4831" y="386.3647">(RA-01 a RA-05)</text></g><!--entity UC5--><g class="entity" data-qualified-name="Plataforma mareIA . FamilIAr_Ativa.UC5" data-source-line="19" id="ent0012"><ellipse cx="327.8551" cy="287.4448" fill="#F1F1F1" rx="94.8751" ry="24.8179" style="stroke:#181818;stroke-width:0.5;"/><text fill="#000000" font-family="Helvetica" font-size="14" lengthAdjust="spacing" textLength="102.7578" x="276.4762" y="282.1543">Ajuste &#225;lgico e</text><text fill="#000000" font-family="Helvetica" font-size="14" lengthAdjust="spacing" textLength="137.252" x="259.2291" y="298.4512">prescri&#231;&#227;o paliativa</text></g><!--entity UC6--><g class="entity" data-qualified-name="Plataforma mareIA . FamilIAr_Ativa.UC6" data-source-line="20" id="ent0013"><ellipse cx="327.8559" cy="457.4454" fill="#F1F1F1" rx="76.2259" ry="24.3385" style="stroke:#181818;stroke-width:0.5;"/><text fill="#000000" font-family="Helvetica" font-size="14" lengthAdjust="spacing" textLength="111.8496" x="271.9311" y="456.4675">Visita domiciliar</text><text fill="#000000" font-family="Helvetica" font-size="14" lengthAdjust="spacing" textLength="69.0361" x="293.3378" y="472.7644">priorit&#225;ria</text></g><!--entity UC7--><g class="entity" data-qualified-name="Plataforma mareIA . FamilIAr_Ativa.UC7" data-source-line="21" id="ent0014"><ellipse cx="327.8641" cy="711.4492" fill="#F1F1F1" rx="89.4441" ry="24.3723" style="stroke:#181818;stroke-width:0.5;"/><text fill="#000000" font-family="Helvetica" font-size="14" lengthAdjust="spacing" textLength="131.8311" x="261.9485" y="710.419">Suporte emocional</text><text fill="#000000" font-family="Helvetica" font-size="14" lengthAdjust="spacing" textLength="82.7285" x="286.4998" y="726.7159">ao cuidador</text></g><!--entity UC8--><g class="entity" data-qualified-name="Plataforma mareIA . FamilIAr_Ativa.UC8" data-source-line="22" id="ent0015"><ellipse cx="327.86" cy="626.4435" fill="#F1F1F1" rx="85.72" ry="25.7666" style="stroke:#181818;stroke-width:0.5;"/><text fill="#000000" font-family="Helvetica" font-size="14" lengthAdjust="spacing" textLength="112.4717" x="271.6241" y="622.5441">Auditoria cl&#237;nica</text><text fill="#000000" font-family="Helvetica" font-size="14" lengthAdjust="spacing" textLength="118.4258" x="268.6471" y="638.841">e explicabilidade</text></g><!--entity P--><g class="entity" data-qualified-name="P" data-source-line="7" id="ent0001"><ellipse cx="69.6784" cy="59.2969" fill="#F1F1F1" rx="16" ry="16" style="stroke:#181818;stroke-width:0.5;"/><path d="M69.6784,79.2969 C73.6784,79.2969 76.6784,79.2969 80.6784,75.2969 C88.6784,75.2969 96.6784,83.2969 96.6784,91.2969 L96.6784,95.2969 C96.6784,99.2969 92.6784,103.2969 88.6784,103.2969 L50.6784,103.2969 C46.6784,103.2969 42.6784,99.2969 42.6784,95.2969 L42.6784,91.2969 C42.6784,83.2969 50.6784,75.2969 58.6784,75.2969 C62.6784,79.2969 65.6784,79.2969 69.6784,79.2969" fill="#F1F1F1" style="stroke:#181818;stroke-width:0.5;"/><text fill="#000000" font-family="Helvetica" font-size="14" lengthAdjust="spacing" textLength="124.2568" x="7.55" y="116.792">Paciente Paliativo</text></g><!--entity C--><g class="entity" data-qualified-name="C" data-source-line="8" id="ent0002"><ellipse cx="69.6774" cy="171.1469" fill="#F1F1F1" rx="16" ry="16" style="stroke:#181818;stroke-width:0.5;"/><path d="M69.6774,191.1469 C73.6774,191.1469 76.6774,191.1469 80.6774,187.1469 C88.6774,187.1469 96.6774,195.1469 96.6774,203.1469 L96.6774,207.1469 C96.6774,211.1469 92.6774,215.1469 88.6774,215.1469 L50.6774,215.1469 C46.6774,215.1469 42.6774,211.1469 42.6774,207.1469 L42.6774,203.1469 C42.6774,195.1469 50.6774,187.1469 58.6774,187.1469 C62.6774,191.1469 65.6774,191.1469 69.6774,191.1469" fill="#F1F1F1" style="stroke:#181818;stroke-width:0.5;"/><text fill="#000000" font-family="Helvetica" font-size="14" lengthAdjust="spacing" textLength="82.7148" x="28.32" y="228.642">Cuidador(a)</text><text fill="#000000" font-family="Helvetica" font-size="14" lengthAdjust="spacing" textLength="56.2734" x="28.32" y="244.9389">Familiar</text></g><!--entity MED--><g class="entity" data-qualified-name="MED" data-source-line="9" id="ent0003"><ellipse cx="69.6779" cy="300.1469" fill="#F1F1F1" rx="16" ry="16" style="stroke:#181818;stroke-width:0.5;"/><path d="M69.6779,320.1469 C73.6779,320.1469 76.6779,320.1469 80.6779,316.1469 C88.6779,316.1469 96.6779,324.1469 96.6779,332.1469 L96.6779,336.1469 C96.6779,340.1469 92.6779,344.1469 88.6779,344.1469 L50.6779,344.1469 C46.6779,344.1469 42.6779,340.1469 42.6779,336.1469 L42.6779,332.1469 C42.6779,324.1469 50.6779,316.1469 58.6779,316.1469 C62.6779,320.1469 65.6779,320.1469 69.6779,320.1469" fill="#F1F1F1" style="stroke:#181818;stroke-width:0.5;"/><text fill="#000000" font-family="Helvetica" font-size="14" lengthAdjust="spacing" textLength="69.2344" x="31.53" y="357.642">M&#233;dico(a)</text><text fill="#000000" font-family="Helvetica" font-size="14" lengthAdjust="spacing" textLength="76.2959" x="31.53" y="373.9389">Paliativista</text></g><!--entity ENF--><g class="entity" data-qualified-name="ENF" data-source-line="10" id="ent0004"><ellipse cx="69.6807" cy="429.1469" fill="#F1F1F1" rx="16" ry="16" style="stroke:#181818;stroke-width:0.5;"/><path d="M69.6807,449.1469 C73.6807,449.1469 76.6807,449.1469 80.6807,445.1469 C88.6807,445.1469 96.6807,453.1469 96.6807,461.1469 L96.6807,465.1469 C96.6807,469.1469 92.6807,473.1469 88.6807,473.1469 L50.6807,473.1469 C46.6807,473.1469 42.6807,469.1469 42.6807,465.1469 L42.6807,461.1469 C42.6807,453.1469 50.6807,445.1469 58.6807,445.1469 C62.6807,449.1469 65.6807,449.1469 69.6807,449.1469" fill="#F1F1F1" style="stroke:#181818;stroke-width:0.5;"/><text fill="#000000" font-family="Helvetica" font-size="14" lengthAdjust="spacing" textLength="96.9814" x="21.19" y="486.642">Enfermeiro(a)</text><text fill="#000000" font-family="Helvetica" font-size="14" lengthAdjust="spacing" textLength="70.5742" x="21.19" y="502.9389">Domiciliar</text></g><!--entity PSI--><g class="entity" data-qualified-name="PSI" data-source-line="11" id="ent0005"><ellipse cx="69.6794" cy="703.2969" fill="#F1F1F1" rx="16" ry="16" style="stroke:#181818;stroke-width:0.5;"/><path d="M69.6794,723.2969 C73.6794,723.2969 76.6794,723.2969 80.6794,719.2969 C88.6794,719.2969 96.6794,727.2969 96.6794,735.2969 L96.6794,739.2969 C96.6794,743.2969 92.6794,747.2969 88.6794,747.2969 L50.6794,747.2969 C46.6794,747.2969 42.6794,743.2969 42.6794,739.2969 L42.6794,735.2969 C42.6794,727.2969 50.6794,719.2969 58.6794,719.2969 C62.6794,723.2969 65.6794,723.2969 69.6794,723.2969" fill="#F1F1F1" style="stroke:#181818;stroke-width:0.5;"/><text fill="#000000" font-family="Helvetica" font-size="14" lengthAdjust="spacing" textLength="85.2988" x="27.03" y="760.792">Psic&#243;logo(a)</text></g><!--entity G--><g class="entity" data-qualified-name="G" data-source-line="12" id="ent0006"><ellipse cx="69.6802" cy="591.2969" fill="#F1F1F1" rx="16" ry="16" style="stroke:#181818;stroke-width:0.5;"/><path d="M69.6802,611.2969 C73.6802,611.2969 76.6802,611.2969 80.6802,607.2969 C88.6802,607.2969 96.6802,615.2969 96.6802,623.2969 L96.6802,627.2969 C96.6802,631.2969 92.6802,635.2969 88.6802,635.2969 L50.6802,635.2969 C46.6802,635.2969 42.6802,631.2969 42.6802,627.2969 L42.6802,623.2969 C42.6802,615.2969 50.6802,607.2969 58.6802,607.2969 C62.6802,611.2969 65.6802,611.2969 69.6802,611.2969" fill="#F1F1F1" style="stroke:#181818;stroke-width:0.5;"/><text fill="#000000" font-family="Helvetica" font-size="14" lengthAdjust="spacing" textLength="127.3604" x="6" y="648.792">Gestor CUIDATIVA</text></g><!--link P to UC1--><g class="link" data-entity-1="ent0001" data-entity-2="ent0008" data-link-type="dependency" data-source-line="25" id="lnk16"><path d="M132.04,90.5469 C166.53,95.6669 205.0342,101.3723 242.1342,106.8823" fill="none" id="P-to-UC1" style="stroke:#181818;stroke-width:1;"/><polygon fill="#181818" points="247.08,107.6169,238.7653,102.3381,242.1342,106.8823,237.59,110.2513,247.08,107.6169" style="stroke:#181818;stroke-width:1;stroke-linejoin:miter;stroke-miterlimit:10;"/></g><!--link C to UC1--><g class="link" data-entity-1="ent0002" data-entity-2="ent0008" data-link-type="dependency" data-source-line="26" id="lnk17"><path d="M111.06,183.7469 C128.76,176.3469 149.9,167.9569 169.36,161.4469 C198.21,151.7969 225.7563,144.0873 253.6363,136.9473" fill="none" id="C-to-UC1" style="stroke:#181818;stroke-width:1;"/><polygon fill="#181818" points="258.48,135.7069,248.769,134.0647,253.6363,136.9473,250.7537,141.8146,258.48,135.7069" style="stroke:#181818;stroke-width:1;stroke-linejoin:miter;stroke-miterlimit:10;"/></g><!--link C to UC2--><g class="link" data-entity-1="ent0002" data-entity-2="ent0009" data-link-type="dependency" data-source-line="27" id="lnk18"><path d="M111.27,201.7669 C142.59,202.0069 182.2802,202.3174 222.8602,202.6374" fill="none" id="C-to-UC2" style="stroke:#181818;stroke-width:1;"/><polygon fill="#181818" points="227.86,202.6769,218.8918,198.606,222.8602,202.6374,218.8287,206.6058,227.86,202.6769" style="stroke:#181818;stroke-width:1;stroke-linejoin:miter;stroke-miterlimit:10;"/></g><!--link MED to UC4--><g class="link" data-entity-1="ent0003" data-entity-2="ent0011" data-link-type="dependency" data-source-line="28" id="lnk19"><path d="M108.21,336.5969 C144.55,342.5569 195.8659,350.9678 242.2159,358.5678" fill="none" id="MED-to-UC4" style="stroke:#181818;stroke-width:1;"/><polygon fill="#181818" points="247.15,359.3769,238.9158,353.9733,242.2159,358.5678,237.6214,361.8679,247.15,359.3769" style="stroke:#181818;stroke-width:1;stroke-linejoin:miter;stroke-miterlimit:10;"/></g><!--link MED to UC5--><g class="link" data-entity-1="ent0003" data-entity-2="ent0012" data-link-type="dependency" data-source-line="29" id="lnk20"><path d="M108.21,324.1469 C144.55,318.0469 195.869,309.4346 242.219,301.6546" fill="none" id="MED-to-UC5" style="stroke:#181818;stroke-width:1;"/><polygon fill="#181818" points="247.15,300.8269,237.612,298.3719,242.219,301.6546,238.9363,306.2615,247.15,300.8269" style="stroke:#181818;stroke-width:1;stroke-linejoin:miter;stroke-miterlimit:10;"/></g><!--link MED to UC8--><g class="link" data-entity-1="ent0003" data-entity-2="ent0015" data-link-type="dependency" data-source-line="30" id="lnk21"><path d="M108.03,361.8569 C117.62,371.6869 127.01,383.1969 133.36,395.4469 C172.51,470.9769 111.57,521.0069 169.36,583.4469 C188.52,604.1469 211.6919,614.195 238.8319,620.035" fill="none" id="MED-to-UC8" style="stroke:#181818;stroke-width:1;"/><polygon fill="#181818" points="243.72,621.0869,235.7629,615.2831,238.8319,620.035,234.0799,623.1041,243.72,621.0869" style="stroke:#181818;stroke-width:1;stroke-linejoin:miter;stroke-miterlimit:10;"/></g><!--link ENF to UC4--><g class="link" data-entity-1="ent0004" data-entity-2="ent0011" data-link-type="dependency" data-source-line="31" id="lnk22"><path d="M118.51,436.3469 C134.47,429.1269 152.49,421.4669 169.36,415.4469 C197.52,405.3869 224.3822,397.5799 251.9222,390.3899" fill="none" id="ENF-to-UC4" style="stroke:#181818;stroke-width:1;"/><polygon fill="#181818" points="256.76,389.1269,247.0414,387.5301,251.9222,390.3899,249.0623,395.2706,256.76,389.1269" style="stroke:#181818;stroke-width:1;stroke-linejoin:miter;stroke-miterlimit:10;"/></g><!--link ENF to UC6--><g class="link" data-entity-1="ent0004" data-entity-2="ent0013" data-link-type="dependency" data-source-line="32" id="lnk23"><path d="M118.57,459.0769 C155.86,458.7869 203.3202,458.4165 246.2702,458.0765" fill="none" id="ENF-to-UC6" style="stroke:#181818;stroke-width:1;"/><polygon fill="#181818" points="251.27,458.0369,242.2386,454.1082,246.2702,458.0765,242.3019,462.108,251.27,458.0369" style="stroke:#181818;stroke-width:1;stroke-linejoin:miter;stroke-miterlimit:10;"/></g><!--link PSI to UC7--><g class="link" data-entity-1="ent0005" data-entity-2="ent0014" data-link-type="dependency" data-source-line="33" id="lnk24"><path d="M112.7,723.1469 C147.05,721.2769 191.7774,718.8293 234.6674,716.4893" fill="none" id="PSI-to-UC7" style="stroke:#181818;stroke-width:1;"/><polygon fill="#181818" points="239.66,716.2169,230.4555,712.7131,234.6674,716.4893,230.8913,720.7012,239.66,716.2169" style="stroke:#181818;stroke-width:1;stroke-linejoin:miter;stroke-miterlimit:10;"/></g><!--link G to UC8--><g class="link" data-entity-1="ent0006" data-entity-2="ent0015" data-link-type="dependency" data-source-line="34" id="lnk25"><path d="M133.68,616.6469 C166.57,618.3169 202.2564,620.124 237.7964,621.924" fill="none" id="G-to-UC8" style="stroke:#181818;stroke-width:1;"/><polygon fill="#181818" points="242.79,622.1769,234.0039,617.7268,237.7964,621.924,233.5992,625.7165,242.79,622.1769" style="stroke:#181818;stroke-width:1;stroke-linejoin:miter;stroke-miterlimit:10;"/></g><?plantuml-src TPBFRjD04CRl-nIZdD9395gQjYSaA__8eLNKD1L2aT1qFN47rhlHxhe58IGUWXUeE20Ed7W4lmbFmjYn4oFWj2Flzzlvnjz4ZePWXC45I0bMmS6lprzWYZcRUUBV994V4FgZWbDCHRD0moZVN3XIXZOHeWFFsNs4b3tfoCwgy8xj5Ztc4Eu5UcIRmGPDeCvDIXiiJ9mw6wym9tX9ve4YQ-neK4Vdb_636CH72YudfUflq5kWPhAH3dvwWEAklM_y-ZuUhMqz3AEl9QDMSbb-JrcxMj6-mY5YhRgSZ5lTn6x8vyH-9nsxdFNXkSdLTEyfi2v_6fTLmfsTvRozd56epj5gFavkvhT9VJzJglfdQ3CPiRSm677ZV8wGewTvyeyaUl1H0HI1D0P1hYaJonuz1BRHvHZMjZy96Wt2P9aiTpPMe-F_GEvE-gFFy82zHi-nvKwwtC9JokMtygkhDiLpq6vjjpAKEEs_IkOjzBmBtNZ6ZAgy0GtvM3kyJWRFZW6XEeSjTjh5ahT5a7JB9vD9Ha3Io5FGlkc_RVB2XXrssLiE717IVL0Lp4x6Af_4JOESTP5b8ND8FygTbWr6ixReG3TBr13dVnWiKfP06K6RyeULnLrRuTzlZPHtqbP8Qi0BzKcf1Gm6B-eeHdzL9qhshQbFE_MmKryeMRMzvb2VATcofZvNirRz6m00?></g></svg>